#Comment line ignore any data following # character 
#Hierarchical Translation and Rotation (.htr) file 
[Header]	
#Header keywords are followed by a single value 
FileType HTR		#Single word string
DataType HTRS		#Translation followed by rotation and scale data
FileVersion 1		#integer
NumSegments 84		#integer
NumFrames 2		#integer
DataFrameRate 30		#integer, data frame rate in this file
EulerRotationOrder ZYX
CalibrationUnits mm
RotationUnits Degrees
GlobalAxisofGravity Y
BoneLengthAxis Y
ScaleFactor 1.00
[SegmentNames&Hierarchy]
#CHILD	PARENT
MASTER GLOBAL
root MASTER
chest root
L_mid_tent01 root
R_mid_tent01 root
spine01 root
Bip01_Neck chest
L_humerus chest
R_humerus chest
weapon_bone chest
Bip01_Head Bip01_Neck
eye_left_bone Bip01_Head
eye_right_bone Bip01_Head
L_forearm L_humerus
L_front_hand L_forearm
L_weapon_bone L_forearm
L_front_hand01_01 L_front_hand
L_front_hand02_01 L_front_hand
L_front_hand03_01 L_front_hand
L_front_hand01_02 L_front_hand01_01
L_front_hand02_02 L_front_hand02_01
L_front_hand03_02 L_front_hand03_01
R_forearm R_humerus
R_front_hand R_forearm
R_weapon_bone R_forearm
R_front_hand01_01 R_front_hand
R_front_hand02_01 R_front_hand
R_front_hand03_01 R_front_hand
R_front_hand01_02 R_front_hand01_01
R_front_hand02_02 R_front_hand02_01
R_front_hand03_02 R_front_hand03_01
null_rope01_connect L_mid_tent01
Rope1_Seg01 null_rope01_connect
Rope1_Seg02 Rope1_Seg01
Rope1_Seg03 Rope1_Seg02
Rope1_Seg04 Rope1_Seg03
Rope1_Seg05 Rope1_Seg04
Rope1_Seg06 Rope1_Seg05
Rope1_Seg07 Rope1_Seg06
Rope1_Seg09 Rope1_Seg07
L_mid_hand01 Rope1_Seg09
L_mid_hand02 Rope1_Seg09
L_mid_hand03 Rope1_Seg09
null_rope02_connect R_mid_tent01
Rope2_Seg01 null_rope02_connect
Rope2_Seg02 Rope2_Seg01
Rope2_Seg03 Rope2_Seg02
Rope2_Seg04 Rope2_Seg03
Rope2_Seg05 Rope2_Seg04
Rope2_Seg06 Rope2_Seg05
Rope2_Seg07 Rope2_Seg06
Rope2_Seg09 Rope2_Seg07
R_mid_hand01 Rope2_Seg09
R_mid_hand02 Rope2_Seg09
R_mid_hand03 Rope2_Seg09
spine02 spine01
spine03 spine02
pelvis spine03
null_rope03_connect pelvis
null_rope04_connect pelvis
Rope3_Seg01 null_rope03_connect
Rope3_Seg02 Rope3_Seg01
Rope3_Seg03 Rope3_Seg02
Rope3_Seg04 Rope3_Seg03
Rope3_Seg05 Rope3_Seg04
Rope3_Seg06 Rope3_Seg05
Rope3_Seg07 Rope3_Seg06
Rope3_Seg08 Rope3_Seg07
Rope3_Seg09 Rope3_Seg08
R_rear_hand01 Rope3_Seg09
R_rear_hand02 Rope3_Seg09
R_rear_hand03 Rope3_Seg09
Rope4_Seg01 null_rope04_connect
Rope4_Seg02 Rope4_Seg01
Rope4_Seg03 Rope4_Seg02
Rope4_Seg04 Rope4_Seg03
Rope4_Seg05 Rope4_Seg04
Rope4_Seg06 Rope4_Seg05
Rope4_Seg07 Rope4_Seg06
Rope4_Seg08 Rope4_Seg07
Rope4_Seg09 Rope4_Seg08
L_rear_hand01 Rope4_Seg09
L_rear_hand02 Rope4_Seg09
L_rear_hand03 Rope4_Seg09
[BasePosition]
#SegmentName Tx, Ty, Tz, Rx, Ry, Rz, BoneLength
MASTER 0.000000 0.000000 0.000000 -90.000000 0.000000 0.000000 10.000000 
root 0.000000 0.000000 0.000000 0.000000 0.000000 0.000000 10.000000 
chest 0.000000 0.000000 0.000000 0.000000 0.000000 0.000000 10.000000 
L_mid_tent01 0.000000 0.000000 0.000000 0.000000 0.000000 0.000000 10.000000 
R_mid_tent01 0.000000 0.000000 0.000000 0.000000 0.000000 0.000000 10.000000 
spine01 0.000000 0.000000 0.000000 0.000000 0.000000 0.000000 10.000000 
Bip01_Neck 0.000000 0.000000 0.000000 0.000000 0.000000 0.000000 10.000000 
L_humerus 0.000000 0.000000 0.000000 0.000000 0.000000 0.000000 10.000000 
R_humerus 0.000000 0.000000 0.000000 0.000000 0.000000 0.000000 10.000000 
weapon_bone 0.000000 0.000000 0.000000 0.000000 0.000000 0.000000 10.000000 
Bip01_Head 0.000000 0.000000 0.000000 0.000000 0.000000 0.000000 10.000000 
eye_left_bone 0.000000 0.000000 0.000000 0.000000 0.000000 0.000000 10.000000 
eye_right_bone 0.000000 0.000000 0.000000 0.000000 0.000000 0.000000 10.000000 
L_forearm 0.000000 0.000000 0.000000 0.000000 0.000000 0.000000 10.000000 
L_front_hand 0.000000 0.000000 0.000000 0.000000 0.000000 0.000000 10.000000 
L_weapon_bone 0.000000 0.000000 0.000000 0.000000 0.000000 0.000000 10.000000 
L_front_hand01_01 0.000000 0.000000 0.000000 0.000000 0.000000 0.000000 10.000000 
L_front_hand02_01 0.000000 0.000000 0.000000 0.000000 0.000000 0.000000 10.000000 
L_front_hand03_01 0.000000 0.000000 0.000000 0.000000 0.000000 0.000000 10.000000 
L_front_hand01_02 0.000000 0.000000 0.000000 0.000000 0.000000 0.000000 10.000000 
L_front_hand02_02 0.000000 0.000000 0.000000 0.000000 0.000000 0.000000 10.000000 
L_front_hand03_02 0.000000 0.000000 0.000000 0.000000 0.000000 0.000000 10.000000 
R_forearm 0.000000 0.000000 0.000000 0.000000 0.000000 0.000000 10.000000 
R_front_hand 0.000000 0.000000 0.000000 0.000000 0.000000 0.000000 10.000000 
R_weapon_bone 0.000000 0.000000 0.000000 0.000000 0.000000 0.000000 10.000000 
R_front_hand01_01 0.000000 0.000000 0.000000 0.000000 0.000000 0.000000 10.000000 
R_front_hand02_01 0.000000 0.000000 0.000000 0.000000 0.000000 0.000000 10.000000 
R_front_hand03_01 0.000000 0.000000 0.000000 0.000000 0.000000 0.000000 10.000000 
R_front_hand01_02 0.000000 0.000000 0.000000 0.000000 0.000000 0.000000 10.000000 
R_front_hand02_02 0.000000 0.000000 0.000000 0.000000 0.000000 0.000000 10.000000 
R_front_hand03_02 0.000000 0.000000 0.000000 0.000000 0.000000 0.000000 10.000000 
null_rope01_connect 0.000000 0.000000 0.000000 0.000000 0.000000 0.000000 10.000000 
Rope1_Seg01 0.000000 0.000000 0.000000 0.000000 0.000000 0.000000 10.000000 
Rope1_Seg02 0.000000 0.000000 0.000000 0.000000 0.000000 0.000000 10.000000 
Rope1_Seg03 0.000000 0.000000 0.000000 0.000000 0.000000 0.000000 10.000000 
Rope1_Seg04 0.000000 0.000000 0.000000 0.000000 0.000000 0.000000 10.000000 
Rope1_Seg05 0.000000 0.000000 0.000000 0.000000 0.000000 0.000000 10.000000 
Rope1_Seg06 0.000000 0.000000 0.000000 0.000000 0.000000 0.000000 10.000000 
Rope1_Seg07 0.000000 0.000000 0.000000 0.000000 0.000000 0.000000 10.000000 
Rope1_Seg09 0.000000 0.000000 0.000000 0.000000 0.000000 0.000000 10.000000 
L_mid_hand01 0.000000 0.000000 0.000000 0.000000 0.000000 0.000000 10.000000 
L_mid_hand02 0.000000 0.000000 0.000000 0.000000 0.000000 0.000000 10.000000 
L_mid_hand03 0.000000 0.000000 0.000000 0.000000 0.000000 0.000000 10.000000 
null_rope02_connect 0.000000 0.000000 0.000000 0.000000 0.000000 0.000000 10.000000 
Rope2_Seg01 0.000000 0.000000 0.000000 0.000000 0.000000 0.000000 10.000000 
Rope2_Seg02 0.000000 0.000000 0.000000 0.000000 0.000000 0.000000 10.000000 
Rope2_Seg03 0.000000 0.000000 0.000000 0.000000 0.000000 0.000000 10.000000 
Rope2_Seg04 0.000000 0.000000 0.000000 0.000000 0.000000 0.000000 10.000000 
Rope2_Seg05 0.000000 0.000000 0.000000 0.000000 0.000000 0.000000 10.000000 
Rope2_Seg06 0.000000 0.000000 0.000000 0.000000 0.000000 0.000000 10.000000 
Rope2_Seg07 0.000000 0.000000 0.000000 0.000000 0.000000 0.000000 10.000000 
Rope2_Seg09 0.000000 0.000000 0.000000 0.000000 0.000000 0.000000 10.000000 
R_mid_hand01 0.000000 0.000000 0.000000 0.000000 0.000000 0.000000 10.000000 
R_mid_hand02 0.000000 0.000000 0.000000 0.000000 0.000000 0.000000 10.000000 
R_mid_hand03 0.000000 0.000000 0.000000 0.000000 0.000000 0.000000 10.000000 
spine02 0.000000 0.000000 0.000000 0.000000 0.000000 0.000000 10.000000 
spine03 0.000000 0.000000 0.000000 0.000000 0.000000 0.000000 10.000000 
pelvis 0.000000 0.000000 0.000000 0.000000 0.000000 0.000000 10.000000 
null_rope03_connect 0.000000 0.000000 0.000000 0.000000 0.000000 0.000000 10.000000 
null_rope04_connect 0.000000 0.000000 0.000000 0.000000 0.000000 0.000000 10.000000 
Rope3_Seg01 0.000000 0.000000 0.000000 0.000000 0.000000 0.000000 10.000000 
Rope3_Seg02 0.000000 0.000000 0.000000 0.000000 0.000000 0.000000 10.000000 
Rope3_Seg03 0.000000 0.000000 0.000000 0.000000 0.000000 0.000000 10.000000 
Rope3_Seg04 0.000000 0.000000 0.000000 0.000000 0.000000 0.000000 10.000000 
Rope3_Seg05 0.000000 0.000000 0.000000 0.000000 0.000000 0.000000 10.000000 
Rope3_Seg06 0.000000 0.000000 0.000000 0.000000 0.000000 0.000000 10.000000 
Rope3_Seg07 0.000000 0.000000 0.000000 0.000000 0.000000 0.000000 10.000000 
Rope3_Seg08 0.000000 0.000000 0.000000 0.000000 0.000000 0.000000 10.000000 
Rope3_Seg09 0.000000 0.000000 0.000000 0.000000 0.000000 0.000000 10.000000 
R_rear_hand01 0.000000 0.000000 0.000000 0.000000 0.000000 0.000000 10.000000 
R_rear_hand02 0.000000 0.000000 0.000000 0.000000 0.000000 0.000000 10.000000 
R_rear_hand03 0.000000 0.000000 0.000000 0.000000 0.000000 0.000000 10.000000 
Rope4_Seg01 0.000000 0.000000 0.000000 0.000000 0.000000 0.000000 10.000000 
Rope4_Seg02 0.000000 0.000000 0.000000 0.000000 0.000000 0.000000 10.000000 
Rope4_Seg03 0.000000 0.000000 0.000000 0.000000 0.000000 0.000000 10.000000 
Rope4_Seg04 0.000000 0.000000 0.000000 0.000000 0.000000 0.000000 10.000000 
Rope4_Seg05 0.000000 0.000000 0.000000 0.000000 0.000000 0.000000 10.000000 
Rope4_Seg06 0.000000 0.000000 0.000000 0.000000 0.000000 0.000000 10.000000 
Rope4_Seg07 0.000000 0.000000 0.000000 0.000000 0.000000 0.000000 10.000000 
Rope4_Seg08 0.000000 0.000000 0.000000 0.000000 0.000000 0.000000 10.000000 
Rope4_Seg09 0.000000 0.000000 0.000000 0.000000 0.000000 0.000000 10.000000 
L_rear_hand01 0.000000 0.000000 0.000000 0.000000 0.000000 0.000000 10.000000 
L_rear_hand02 0.000000 0.000000 0.000000 0.000000 0.000000 0.000000 10.000000 
L_rear_hand03 0.000000 0.000000 0.000000 0.000000 0.000000 0.000000 10.000000 
#Beginning of Data. Separated by tabs
#Fr	Tx	Ty	Tz	Rx	Ry	Rz	SF
[MASTER]
22 0.000000 0.000000 0.000000 0.001660 0.001660 0.001660 0.000000
23 0.000000 0.000000 0.000000 0.001660 0.001660 0.001660 0.000000
[root]
22 -37.360451 -51.424522 1508.301636 -91.629700 -27.676081 -90.148109 1509.640381
23 -35.966587 -51.536610 1513.703003 -91.629700 -27.676081 -90.148109 1515.006958
[chest]
22 -84.512650 -34.090519 0.000000 -1.888051 0.943089 -178.206696 91.129311
23 -84.512650 -34.090519 0.000000 -1.888050 0.943089 -178.206696 91.129311
[L_mid_tent01]
22 27.299599 22.177639 -249.918304 3.862628 36.229202 81.347610 252.381226
23 27.299603 22.177643 -249.918304 3.862628 36.229202 81.347610 252.381226
[R_mid_tent01]
22 23.228794 24.509907 226.238495 160.432037 -47.061241 87.899765 228.744751
23 23.228794 24.509907 226.238495 160.432037 -47.061241 87.899765 228.744751
[spine01]
22 -0.361383 -0.195265 0.000000 0.001845 0.001451 13.654368 0.410763
23 -0.361383 -0.195265 0.000000 0.001845 0.001451 13.654368 0.410763
[Bip01_Neck]
22 165.484543 71.581718 0.000119 176.643677 -1.657967 43.431911 180.302734
23 165.484543 71.581718 0.000119 176.643677 -1.657967 43.431911 180.302734
[L_humerus]
22 -13.983130 -135.272980 -120.471481 156.317398 70.210068 -112.010254 181.680161
23 -13.983130 -135.272980 -120.471481 156.317398 70.210068 -112.010254 181.680161
[R_humerus]
22 -13.983309 -135.273102 125.287651 -172.382263 -66.903831 -92.553993 184.909012
23 -13.983309 -135.273102 125.287651 -172.382263 -66.903831 -92.553993 184.909012
[weapon_bone]
22 235.964890 -300.705902 0.000000 0.000000 -89.951546 -128.212341 382.234833
23 235.964890 -300.705902 0.000000 0.000000 -89.951546 -128.212341 382.234833
[Bip01_Head]
22 213.482422 185.609665 13.143528 5.200446 6.151312 -43.834995 283.193298
23 213.443909 185.716965 11.758801 5.200446 6.151311 -43.834991 283.173737
[eye_left_bone]
22 -24.626970 125.451866 -64.772606 0.000000 -90.000000 -99.840431 143.318359
23 -24.626970 125.451866 -64.772606 0.000000 -90.000000 -99.840431 143.318359
[eye_right_bone]
22 -24.626970 125.451866 64.327362 0.000000 -89.965736 80.156380 143.117676
23 -24.626970 125.451866 64.327362 0.000000 -89.965736 80.156380 143.117676
[L_forearm]
22 322.776093 0.000000 -0.000119 0.000119 -0.002344 -95.807457 322.776093
23 322.776093 0.000000 -0.000119 0.000119 -0.002344 -95.807457 322.776093
[L_front_hand]
22 241.149185 -0.042021 -3.300071 -178.667953 -1.835447 -27.422350 241.171753
23 241.149185 -0.042021 -3.300071 -178.667953 -1.835447 -27.422350 241.171753
[L_weapon_bone]
22 156.183838 0.000000 0.000000 0.000014 0.000007 0.000001 156.183838
23 156.183838 0.000000 0.000000 0.000014 0.000007 0.000001 156.183838
[L_front_hand01_01]
22 86.095154 20.947098 -0.655860 -0.314053 -0.508434 69.417068 88.609184
23 86.095154 20.947098 -0.655860 -0.321505 -0.503456 70.187172 88.609184
[L_front_hand02_01]
22 86.935165 -11.437475 24.513514 145.968994 -56.908298 -51.478970 91.046425
23 86.935165 -11.437475 24.513514 146.961212 -57.331749 -52.661201 91.046425
[L_front_hand03_01]
22 86.637497 -14.123976 -20.424902 -146.056091 55.123112 -53.303532 90.126129
23 86.637497 -14.123976 -20.424902 -146.985443 55.548393 -54.432812 90.126129
[L_front_hand01_02]
22 71.020905 -0.000179 0.000030 0.000318 -0.002326 -105.579170 71.020905
23 71.020905 -0.000179 0.000030 0.000319 -0.002325 -105.617981 71.020905
[L_front_hand02_02]
22 71.020927 -0.000119 0.000060 0.000318 -0.002326 -105.579170 71.020927
23 71.020927 -0.000119 0.000060 0.000319 -0.002325 -105.617981 71.020927
[L_front_hand03_02]
22 71.020905 -0.000060 0.000060 0.000318 -0.002326 -105.579170 71.020905
23 71.020905 -0.000060 0.000060 0.000319 -0.002325 -105.617981 71.020905
[R_forearm]
22 322.776428 -0.000060 0.000030 0.209504 0.012586 -94.339050 322.776428
23 322.776428 -0.000060 0.000030 0.209504 0.012586 -94.339050 322.776428
[R_front_hand]
22 238.847015 -0.006795 2.210259 -2.635298 -10.645461 -26.312506 238.857239
23 238.847015 -0.006795 2.210259 -2.635298 -10.645461 -26.312506 238.857239
[R_weapon_bone]
22 155.664093 0.002503 -0.000030 0.003487 0.001180 -90.988930 155.664078
23 155.664093 0.002503 -0.000030 0.003487 0.001180 -90.988930 155.664078
[R_front_hand01_01]
22 87.624611 14.231146 22.918642 -146.552551 -57.155426 52.280727 91.683487
23 87.624611 14.231146 22.918642 -148.462097 -57.932728 54.541969 91.683487
[R_front_hand02_01]
22 89.356956 14.367283 -19.491137 146.998062 55.533039 54.685249 92.579636
23 89.356956 14.367283 -19.491137 148.801514 56.299931 56.856514 92.579636
[R_front_hand03_01]
22 87.286232 -22.307278 -0.143439 0.117983 -0.440813 -70.109169 90.091743
23 87.286232 -22.307278 -0.143439 0.131531 -0.433516 -71.547462 90.091743
[R_front_hand01_02]
22 71.020905 0.000060 0.000119 0.002323 -0.000334 106.381714 71.020905
23 71.020905 0.000060 0.000119 0.002323 -0.000334 106.381714 71.020905
[R_front_hand02_02]
22 71.020844 -0.000030 -0.000119 0.002323 -0.000334 106.381714 71.020836
23 71.020844 -0.000030 -0.000119 0.002323 -0.000334 106.381714 71.020836
[R_front_hand03_02]
22 71.020905 0.000000 0.000030 0.002323 -0.000334 106.381714 71.020905
23 71.020905 0.000000 0.000030 0.002323 -0.000334 106.381714 71.020905
[null_rope01_connect]
22 328.732483 0.000000 -0.000238 -137.564529 -51.925488 175.258713 328.732483
23 328.732483 0.000000 -0.000238 -137.564545 -51.925488 175.258713 328.732483
[Rope1_Seg01]
22 -0.000038 -0.000114 0.000109 107.541580 52.652870 129.304092 0.000162
23 -0.000038 -0.000114 0.000109 105.944092 52.285568 127.234039 0.000163
[Rope1_Seg02]
22 139.999863 -0.000179 0.000000 -0.268627 -3.407141 5.751602 139.999863
23 139.999863 -0.000179 0.000000 -0.231025 -3.280355 5.527122 139.999863
[Rope1_Seg03]
22 139.999924 0.000060 -0.000060 -0.167340 -4.301821 8.712022 139.999924
23 139.999924 0.000060 -0.000060 -0.089828 -3.874912 8.117145 139.999924
[Rope1_Seg04]
22 139.999924 -0.000060 -0.000119 1.423949 -3.926605 14.916494 139.999924
23 139.999924 -0.000060 -0.000119 1.264017 -3.670782 13.571892 139.999924
[Rope1_Seg05]
22 139.999832 0.000119 -0.000060 -12.028758 -25.711781 17.894911 139.999832
23 139.999832 0.000119 -0.000060 -11.686782 -25.758377 18.672215 139.999832
[Rope1_Seg06]
22 139.999954 0.000119 -0.000060 -10.758060 -11.532380 4.057136 139.999954
23 139.999954 0.000119 -0.000060 -9.757539 -11.213344 4.618216 139.999954
[Rope1_Seg07]
22 139.999985 0.000060 0.000000 -6.215586 -4.982882 1.278794 139.999985
23 139.999985 0.000060 0.000000 -5.779463 -4.894518 1.537598 139.999985
[Rope1_Seg09]
22 121.602913 0.000119 -0.000089 -89.793175 -1.359789 0.847147 121.602913
23 121.602913 0.000119 -0.000089 -89.793175 -1.359789 0.847147 121.602913
[L_mid_hand01]
22 103.859421 1.038730 8.195221 130.544373 -67.584534 -38.866940 104.187431
23 103.859421 1.038730 8.195221 130.544373 -67.584534 -38.866943 104.187431
[L_mid_hand02]
22 105.572853 -4.139662 -10.864139 -168.923172 43.409309 -73.498886 106.211075
23 105.572853 -4.139662 -10.864139 -168.923172 43.409309 -73.498886 106.211075
[L_mid_hand03]
22 104.641464 17.579376 -3.913581 -6.012629 17.808178 74.893669 106.179977
23 104.641464 17.579376 -3.913581 -6.012626 17.808172 74.893661 106.179977
[null_rope02_connect]
22 328.732849 0.000179 -0.000119 -123.736763 41.490059 18.218470 328.732849
23 328.732849 0.000179 -0.000119 -123.736763 41.490059 18.218470 328.732849
[Rope2_Seg01]
22 -0.000050 0.000134 0.000153 -52.685127 46.822350 47.348022 0.000209
23 -0.000048 0.000134 0.000153 -52.307835 47.191124 48.020294 0.000208
[Rope2_Seg02]
22 139.999741 -0.000060 -0.000119 -0.118048 -5.667190 2.518241 139.999756
23 139.999741 -0.000060 -0.000119 -0.090615 -6.069004 2.487927 139.999756
[Rope2_Seg03]
22 140.000107 0.000030 0.000000 -0.306310 -7.961478 4.138722 140.000107
23 140.000107 0.000030 0.000000 -0.289414 -8.210153 3.985008 140.000107
[Rope2_Seg04]
22 139.999802 0.000000 -0.000060 -1.281635 -17.886900 9.315461 139.999802
23 139.999802 0.000000 -0.000060 -1.458500 -18.767546 8.607088 139.999802
[Rope2_Seg05]
22 139.999985 -0.000060 0.000119 -7.317419 -27.499926 5.029258 139.999985
23 139.999985 -0.000060 0.000119 -6.784497 -25.746391 4.710037 139.999985
[Rope2_Seg06]
22 139.999893 -0.000030 -0.000119 -3.296666 -6.724791 0.393656 139.999893
23 139.999893 -0.000030 -0.000119 -3.038723 -6.539298 0.492454 139.999893
[Rope2_Seg07]
22 139.999893 0.000060 -0.000060 -1.970692 -3.271467 0.107428 139.999893
23 139.999893 0.000060 -0.000060 -1.862944 -3.241159 0.148392 139.999893
[Rope2_Seg09]
22 121.338966 0.000089 -0.000060 33.793236 -1.359788 -0.847141 121.338966
23 121.338966 0.000089 -0.000060 33.793236 -1.359788 -0.847141 121.338966
[R_mid_hand01]
22 104.680779 11.144459 -10.335981 -16.212063 45.237240 70.462845 105.778534
23 104.680779 11.144459 -10.335981 -16.212063 45.237247 70.462852 105.778534
[R_mid_hand02]
22 104.070427 2.443552 8.231699 49.067387 -67.749794 39.286469 104.424065
23 104.070427 2.443552 8.231699 49.067368 -67.749771 39.286453 104.424065
[R_mid_hand03]
22 106.028137 -11.221827 -5.996406 -177.101105 15.551026 -76.585571 106.788818
23 106.028137 -11.221827 -5.996406 -177.101105 15.551026 -76.585571 106.788818
[spine02]
22 129.756927 0.001550 0.000119 -1.023899 -3.926965 6.770993 129.756927
23 129.756927 0.001550 0.000119 -1.023899 -3.926965 6.770993 129.756927
[spine03]
22 78.613846 0.087372 -4.898873 1.040681 4.146420 4.212376 78.766380
23 78.613846 0.087372 -4.898873 1.040681 4.146420 4.212376 78.766380
[pelvis]
22 169.435242 0.051022 0.000000 0.019518 -0.190233 -10.721436 169.435257
23 169.435242 0.051022 0.000000 0.019518 -0.190233 -10.721436 169.435257
[null_rope03_connect]
22 -1.257226 -2.466202 137.391083 -148.996323 -87.995132 -107.160522 137.418976
23 -1.257226 -2.466202 137.391083 -148.996323 -87.995132 -107.160522 137.418976
[null_rope04_connect]
22 -1.259640 -2.480268 -137.844437 -148.996323 -87.995132 -107.160522 137.872513
23 -1.259640 -2.480268 -137.844437 -148.996323 -87.995132 -107.160522 137.872513
[Rope3_Seg01]
22 0.000000 0.000000 0.000000 -136.968185 -45.529022 -75.305992 0.000000
23 0.000000 0.000000 0.000000 -136.519928 -44.933945 -75.770073 0.000000
[Rope3_Seg02]
22 139.999924 -0.000119 0.000060 -13.657110 2.539602 -36.017464 139.999924
23 139.999924 -0.000119 0.000060 -13.725187 2.335449 -36.697803 139.999924
[Rope3_Seg03]
22 139.999924 -0.000119 0.000119 -54.924778 10.088327 -44.100773 139.999924
23 139.999924 -0.000119 0.000119 -55.907291 9.919002 -44.482353 139.999924
[Rope3_Seg04]
22 139.999924 0.000119 0.000000 -28.932774 24.842323 -8.998830 139.999924
23 139.999924 0.000119 0.000000 -28.691744 24.952038 -8.563726 139.999924
[Rope3_Seg05]
22 139.999924 -0.000238 0.000060 -9.193676 32.509804 8.115036 139.999924
23 139.999924 -0.000238 0.000060 -8.832192 32.189114 8.511481 139.999924
[Rope3_Seg06]
22 139.999893 -0.000119 -0.000060 -0.156965 13.546818 6.007168 139.999893
23 139.999893 -0.000119 -0.000060 -0.131039 13.326201 6.029084 139.999893
[Rope3_Seg07]
22 139.999771 0.000060 -0.000119 0.636320 6.015270 2.650290 139.999771
23 139.999771 0.000060 -0.000119 0.636315 5.960671 2.674685 139.999771
[Rope3_Seg08]
22 139.999985 -0.000060 0.000000 0.707891 3.193752 1.372148 139.999985
23 139.999985 -0.000060 0.000000 0.703107 3.173927 1.386728 139.999985
[Rope3_Seg09]
22 90.185997 -0.000179 -0.000060 89.793228 -1.359877 -0.847183 90.185997
23 90.185997 -0.000179 -0.000060 89.793228 -1.359877 -0.847183 90.185997
[R_rear_hand01]
22 103.366196 -6.073594 -10.757982 -177.714203 24.565960 -73.910950 104.101845
23 103.366196 -6.073594 -10.757982 -177.714203 24.565960 -73.910950 104.101845
[R_rear_hand02]
22 100.509819 12.039542 -7.992327 -12.874829 36.868488 72.167213 101.543350
23 100.509819 12.039542 -7.992327 -12.874829 36.868488 72.167213 101.543350
[R_rear_hand03]
22 101.539970 5.215704 5.435467 71.484581 -71.816628 21.513813 101.819031
23 101.539970 5.215704 5.435467 71.484581 -71.816628 21.513813 101.819031
[Rope4_Seg01]
22 -0.000012 -0.000023 -0.000153 52.622681 -32.576298 -104.650230 0.000155
23 -0.000012 -0.000020 -0.000153 53.069592 -32.705383 -105.488686 0.000154
[Rope4_Seg02]
22 139.999985 0.000060 0.000119 15.445824 -47.245556 7.678220 139.999985
23 139.999985 0.000060 0.000119 14.808070 -45.350201 7.114945 139.999985
[Rope4_Seg03]
22 139.999924 0.000000 -0.000238 47.683464 -34.073402 17.055292 139.999924
23 139.999924 0.000000 -0.000238 49.214603 -35.719040 17.303249 139.999924
[Rope4_Seg04]
22 139.999985 0.000000 0.000119 24.867477 -2.858461 20.391232 139.999985
23 139.999985 0.000000 0.000119 25.289200 -2.757416 21.116394 139.999985
[Rope4_Seg05]
22 139.999802 -0.000060 -0.000119 20.229334 12.138590 36.826481 139.999802
23 139.999802 -0.000060 -0.000119 19.670135 12.666778 36.490643 139.999802
[Rope4_Seg06]
22 139.999924 0.000000 0.000060 3.636266 12.579820 18.019789 139.999924
23 139.999924 0.000000 0.000060 3.376566 12.250637 17.345371 139.999924
[Rope4_Seg07]
22 139.999802 0.000000 0.000000 0.070763 4.828808 6.453056 139.999802
23 139.999802 0.000000 0.000000 0.067617 4.724572 6.279103 139.999802
[Rope4_Seg08]
22 139.999924 0.000000 0.000119 -1.738635 2.413991 3.252996 139.999924
23 139.999924 0.000000 0.000119 -1.728751 2.380341 3.176972 139.999924
[Rope4_Seg09]
22 90.185791 0.000060 0.000060 -135.617828 2.228885 0.850567 90.185791
23 90.185791 0.000060 0.000060 -135.617828 2.228885 0.850567 90.185791
[L_rear_hand01]
22 101.696655 -8.392275 -7.654577 -12.874837 -36.868492 107.832779 102.329041
23 101.696655 -8.392275 -7.654577 -12.874829 -36.868488 107.832764 102.329041
[L_rear_hand02]
22 102.726799 -1.568258 5.773216 71.484581 71.816628 158.486160 102.900848
23 102.726799 -1.568258 5.773216 71.484581 71.816628 158.486160 102.900848
[L_rear_hand03]
22 104.552910 9.721220 -10.420293 -177.714203 -24.565966 -106.089035 105.519653
23 104.552910 9.721220 -10.420293 -177.714203 -24.565960 -106.089035 105.519653
